<?xml version="1.0"?>
<svg xmlns="http://www.w3.org/2000/svg" height="512px" viewBox="-63 0 479 479.99931" width="512px"><path d="m96.5 232c35.347656 0 64-28.65625 64-64 0-35.347656-28.652344-64-64-64s-64 28.652344-64 64c.039062 35.328125 28.671875 63.957031 64 64zm0-112c26.507812 0 48 21.488281 48 48 0 26.507812-21.492188 48-48 48-26.511719 0-48-21.492188-48-48 .027344-26.5 21.503906-47.972656 48-48zm0 0" fill="#808080"/><path d="m96.5 192c13.253906 0 24-10.746094 24-24s-10.746094-24-24-24-24 10.746094-24 24c.015625 13.25 10.75 23.984375 24 24zm0-32c4.417969 0 8 3.582031 8 8s-3.582031 8-8 8-8-3.582031-8-8c.003906-4.417969 3.582031-7.996094 8-8zm0 0" fill="#808080"/><path d="m256.5 192c13.253906 0 24-10.746094 24-24s-10.746094-24-24-24-24 10.746094-24 24c.015625 13.25 10.75 23.984375 24 24zm0-32c4.417969 0 8 3.582031 8 8s-3.582031 8-8 8-8-3.582031-8-8c.003906-4.417969 3.582031-7.996094 8-8zm0 0" fill="#808080"/><path d="m256.5 232c35.347656 0 64-28.65625 64-64 0-35.347656-28.652344-64-64-64s-64 28.652344-64 64c.039062 35.328125 28.671875 63.957031 64 64zm0-112c26.507812 0 48 21.488281 48 48 0 26.507812-21.492188 48-48 48-26.511719 0-48-21.492188-48-48 .027344-26.5 21.503906-47.972656 48-48zm0 0" fill="#808080"/><path d="m137.554688 235.96875 32 56c1.421874 2.492188 4.074218 4.03125 6.945312 4.03125s5.519531-1.539062 6.945312-4.03125l32-56c2.003907-3.503906 1.082032-7.949219-2.148437-10.367188l-32-24c-2.84375-2.132812-6.75-2.132812-9.59375 0l-32 24c-3.230469 2.417969-4.152344 6.863282-2.148437 10.367188zm38.945312-17.96875 21.546875 16.164062-21.546875 37.710938-21.546875-37.710938zm0 0" fill="#808080"/><path d="m344.5 480c4.417969 0 8-3.582031 8-8v-464c0-3.234375-1.949219-6.152344-4.9375-7.390625-2.992188-1.238281-6.429688-.5546875-8.71875 1.734375l-61.65625 61.65625h-201.375l-61.65625-61.65625c-2.289062-2.2890625-5.730469-2.972656-8.71875-1.734375s-4.9375 4.15625-4.9375 7.390625v464c0 4.417969 3.582031 8 8 8zm-8-400v161.753906l-36.71875 9.175782c-16.074219 3.957031-26.441406 19.558593-23.859375 35.910156l27.253906 177.160156h-14.675781v-24c-.015625-13.25-10.75-23.984375-24-24h-48c-13.25.015625-23.984375 10.75-24 24v24h-32v-24c-.015625-13.25-10.75-23.984375-24-24h-48c-13.25.015625-23.984375 10.75-24 24v24h-14.675781l27.253906-177.160156c2.582031-16.351563-7.792969-31.957032-23.867187-35.910156l-36.710938-9.175782v-161.753906zm-320 384v-205.753906l32.828125 8.207031c8.042969 1.972656 13.230469 9.777344 11.9375 17.957031l-27.632813 179.589844zm104 0v-16h-16v16h-24v-24c.003906-4.417969 3.582031-7.996094 8-8h48c4.417969.003906 7.996094 3.582031 8 8v24zm128 0v-16h-16v16h-24v-24c.003906-4.417969 3.582031-7.996094 8-8h48c4.417969.003906 7.996094 3.582031 8 8v24zm88 0h-17.132812l-27.632813-179.589844c-1.292969-8.175781 3.890625-15.980468 11.929687-17.957031l32.835938-8.207031zm0-436.6875v36.6875h-36.6875zm-320 0 36.6875 36.6875h-36.6875zm0 0" fill="#808080"/></svg>
